<svg xmlns="http://www.w3.org/2000/svg" xml:space="preserve" width="374.374" height="142.325" style="shape-rendering:geometricPrecision;text-rendering:geometricPrecision;image-rendering:optimizeQuality;fill-rule:evenodd;clip-rule:evenodd" viewBox="0 0 11594 4408"><defs><style>.fil0{fill:#0098da}</style></defs><g id="Camada_x0020_1"><path class="fil0" d="M3650 4284v-153h181c44 0 83 29 83 76 0 51-43 77-83 77h-181zm128-413c44 0 83 27 83 72 0 43-37 69-73 72h-138v-144h128zm208 74c0-120-88-197-199-197h-274v660h336c113 0 199-78 199-198 0-73-45-126-102-159 25-31 40-67 40-106zm927-70h181c42 0 83 26 83 70 0 46-43 70-83 70h-181v-140zm433 533-163-281c86-32 128-96 128-182 0-120-89-197-200-197h-335v660h137v-268h123l156 268h154zm731 0h138v-660h-138v660zm1359-660v416l-397-416h-69v660h138v-416l397 416h69v-660h-138zm1135 536h-106v-412h106c120 0 193 97 193 206 0 117-83 206-193 206zm0-536h-244v660h244c187 0 336-144 336-330 0-189-152-330-336-330zm1065 0v660h463v-127h-326v-171h243v-126h-243v-109h326v-127h-463zm1152 545c93 80 194 114 282 114 140 0 251-85 251-200 0-257-390-149-390-273 0-44 44-62 99-62s122 19 164 50l78-96c-73-52-162-78-242-78-127 0-235 65-235 196 0 238 390 145 390 263 0 45-52 75-119 75-60 0-133-24-194-83l-84 94z"/><path d="M6407 0 5102 1494 3797 0h-312v2986h622V1123l995 1135 994-1135v1863h622V0zm2970 0v1883L7580 0h-312v2986h622V1102l1798 1884h311V0zm1182 2986h622V0h-622z" style="fill:#606062"/><path class="fil0" d="M137 3895c2896-543 4806-752 7796-726 1229 11 2436 67 3661 145-3558-182-7958-211-11373 851-81 21-166-22-189-97-24-74 23-151 105-173z" id="_2497195254832"/><path d="M179 4030c2612-681 6093-1040 11415-716" style="fill:none"/><path class="fil0" d="M0 1493c0 275 70 535 198 757l639-394-24-58-361 67-20-66 343-138-13-62-756-24v-76l755-25 10-58-343-127 17-69 372 58 19-55-638-390 39-70 656 348 35-44-234-301 48-45 282 247 56-36-351-677 67-37 397 643 60-26-66-361 63-19 140 349 66-8 11-743 77-3 72 768 170-363 57 19-66 361 60 26 392-638 69 38-347 669 57 37 280-246 48 44-202 347 659-349 40 69-638 390 21 56 370-59 19 69-338 124 10 69 764 3C3037 676 2426 0 1521 0 670 0 0 643 0 1493zm242 830c125 191 294 351 498 466l347-634-47-44-337 204 235-301-44-49-652 358zm572 505c197 96 424 153 673 157l-44-702-58-6-127 344-67-20 63-363-56-23-384 613zm747 157c236-5 459-59 657-154l-386-616-56 23 62 363-66 20-127-344-66 7-18 701zm731-192c204-113 377-271 506-465l-665-364-43 48 203 336-300-235-50 45 349 635zm550-536c112-193 182-419 196-668l-761 3-12 73 333 134-20 66-361-67-25 58 650 401z"/></g></svg>